<svg width="29" height="10" viewBox="0 0 29 10" fill="none" xmlns="http://www.w3.org/2000/svg">
<path d="M20.4414 9.17745V9.48472H20.5687L20.6587 9.39472L20.4414 9.17745ZM28.9582 0.96788C28.9582 0.798181 28.8207 0.660613 28.651 0.660613L25.8856 0.660613C25.7159 0.660612 25.5783 0.798181 25.5783 0.96788C25.5783 1.13758 25.7159 1.27515 25.8856 1.27515L28.3437 1.27515V3.73329C28.3437 3.90299 28.4813 4.04056 28.651 4.04056C28.8207 4.04056 28.9582 3.90299 28.9582 3.73329V0.96788ZM0.809875 9.48472H20.4414V8.87018H0.809875V9.48472ZM20.6587 9.39472L28.8682 1.18515L28.4337 0.750609L20.2241 8.96018L20.6587 9.39472Z" fill="#333333"/>
</svg>
